<?xml version="1.0" encoding="utf-8"?>
<!-- Generator: Adobe Illustrator 24.0.2, SVG Export Plug-In . SVG Version: 6.00 Build 0)  -->
<svg version="1.1" id="Layer_1" xmlns="http://www.w3.org/2000/svg" xmlns:xlink="http://www.w3.org/1999/xlink" x="0px" y="0px"
	 viewBox="0 0 512 512" enable-background="new 0 0 512 512" xml:space="preserve">
<g>
	<polygon fill="#FCD751" points="2.7,508.5 2.7,222.4 256.4,372.4 	"/>
</g>
<g>
	<polygon fill="#FCD751" points="509,508.5 509,222.4 255.3,372.4 	"/>
</g>
<g>
	<polygon fill="#FFA229" points="2.7,508.5 255.3,372.4 509,508.5 	"/>
</g>
<g>
	<polygon fill="#FECA5C" points="255.3,2.4 2.7,222.4 255.3,372.4 509,222.4 	"/>
</g>
<g>
	<g>
		<polygon fill="#F2F2F2" points="255.8,372.1 453.5,255.2 453.5,70.4 60.3,70.4 60.3,256.5 		"/>
	</g>
</g>
<g>
	<g>
		<rect x="119" y="148.6" fill="#CDCCCA" width="198.4" height="8.6"/>
	</g>
	<g>
		<rect x="343.3" y="134.8" fill="#FFFFFF" width="36.2" height="36.2"/>
	</g>
</g>
<g>
	<g>
		<rect x="119" y="203" fill="#CDCCCA" width="198.4" height="8.6"/>
	</g>
	<g>
		<rect x="343.3" y="189.2" fill="#FFFFFF" width="36.2" height="36.2"/>
	</g>
</g>
<g>
	<g>
		<g>
			<rect x="119" y="250" fill="#CDCCCA" width="198.4" height="8.6"/>
		</g>
		<g>
			<rect x="119" y="264.7" fill="#CDCCCA" width="198.4" height="8.6"/>
		</g>
	</g>
	<g>
		<rect x="343.3" y="243.5" fill="#FFFFFF" width="36.2" height="36.2"/>
	</g>
</g>
<g>
	<g>
		<polygon fill="#333D47" points="359.5,165.6 345.9,152.8 349.3,149.2 359,158.4 372.5,142.1 376.2,145.2 		"/>
	</g>
</g>
<g>
	<g>
		<polygon fill="#333D47" points="359.8,219 346.3,206.2 349.6,202.7 359.4,211.9 372.8,195.5 376.6,198.7 		"/>
	</g>
</g>
<g>
	<polygon fill="#FFFFFF" points="379.5,298.9 379.5,297.9 343.3,297.9 343.3,320.3 	"/>
</g>
<g>
	<polygon fill="#CDCCCA" points="153.7,311.7 168.3,320.3 317.4,320.3 317.4,311.7 	"/>
</g>
</svg>
