<svg width="150" height="150" viewBox="0 0 150 150" fill="none" xmlns="http://www.w3.org/2000/svg">
<path d="M115.765 116H109.915V112.603H112.368V110.149H115.765V116Z" fill="#C9F5FF"/>
<path d="M94.397 112.603H102.156V116H94.397V112.603Z" fill="#C9F5FF"/>
<path d="M78.8793 112.603H86.6378V116H78.8793V112.603Z" fill="#C9F5FF"/>
<path d="M63.3622 112.603H71.1207V116H63.3622V112.603Z" fill="#C9F5FF"/>
<path d="M47.8445 112.603H55.603V116H47.8445V112.603Z" fill="#C9F5FF"/>
<path d="M40.0852 116H34.2346V110.149H37.6317V112.603H40.0852V116Z" fill="#C9F5FF"/>
<path d="M34.2346 94.6317H37.6317V102.391H34.2346V94.6317Z" fill="#C9F5FF"/>
<path d="M34.2346 79.1139H37.6317V86.8724H34.2346V79.1139Z" fill="#C9F5FF"/>
<path d="M34.2346 63.5961H37.6317V71.3554H34.2346V63.5961Z" fill="#C9F5FF"/>
<path d="M34.2346 48.0783H37.6317V55.8376H34.2346V48.0783Z" fill="#C9F5FF"/>
<path d="M37.6317 40.3198H34.2346V34.4692H40.0852V37.8664H37.6317V40.3198Z" fill="#C9F5FF"/>
<path d="M94.397 34.4692H102.156V37.8664H94.397V34.4692Z" fill="#C9F5FF"/>
<path d="M78.8793 34.4692H86.6378V37.8664H78.8793V34.4692Z" fill="#C9F5FF"/>
<path d="M63.3622 34.4692H71.1207V37.8664H63.3622V34.4692Z" fill="#C9F5FF"/>
<path d="M47.8445 34.4692H55.603V37.8664H47.8445V34.4692Z" fill="#C9F5FF"/>
<path d="M115.765 40.3198H112.368V37.8664H109.915V34.4692H115.765V40.3198Z" fill="#C9F5FF"/>
<path d="M112.368 94.6317H115.765V102.39H112.368V94.6317Z" fill="#C9F5FF"/>
<path d="M112.368 79.1139H115.765V86.8731H112.368V79.1139Z" fill="#C9F5FF"/>
<path d="M112.368 63.5961H115.765V71.3546H112.368V63.5961Z" fill="#C9F5FF"/>
<path d="M112.368 48.0783H115.765V55.8376H112.368V48.0783Z" fill="#C9F5FF"/>
<path d="M84.8935 70.2596C83.1148 68.4651 80.7526 67.4791 78.2387 67.4791C77.7618 67.4791 77.2957 67.5145 76.833 67.5839C76.5639 69.5491 75.6796 71.4477 74.1842 72.9564C72.7407 74.4126 70.9033 75.3395 68.9175 75.6253C68.4723 75.6947 68.0197 75.726 67.5604 75.726C65.0566 75.726 62.7045 74.7406 60.9366 72.9564L59.2787 71.2837L41.845 53.6963C40.0737 51.9121 39.0997 49.5358 39.0997 47.0139C39.0997 44.4879 40.0737 42.115 41.845 40.3273C43.6136 38.5437 45.9657 37.5611 48.4695 37.5611C50.9733 37.5611 53.3247 38.5437 55.0933 40.3273L72.4952 57.8841C74.3636 57.3125 76.3015 57.0267 78.2387 57.0267C80.7877 57.0267 83.336 57.5214 85.7326 58.5074C84.7728 56.2148 83.3637 54.0652 81.5128 52.1979L62.4212 32.9378C58.567 29.0495 53.5183 27.1087 48.4695 27.1087C43.42 27.1087 38.3713 29.0495 34.5171 32.9378C30.6662 36.8228 28.7391 41.9163 28.7391 47.0098C28.7391 52.104 30.6662 57.1975 34.5171 61.0858L53.608 80.3466C55.4939 82.2485 57.6659 83.6844 59.9802 84.6561C62.401 85.6701 64.9804 86.1784 67.5604 86.1784C69.4666 86.1784 71.3728 85.9001 73.2169 85.3461C76.2529 84.4329 79.1122 82.7678 81.5128 80.3466C83.937 77.9002 85.5984 74.9774 86.4962 71.8764L84.8935 70.2596Z" fill="#69EBFC"/>
<path d="M84.8935 70.2596C83.1148 68.4651 80.7526 67.4791 78.2387 67.4791C77.7618 67.4791 77.2957 67.5145 76.833 67.5839C76.5639 69.5491 75.6796 71.4477 74.1842 72.9564C72.7407 74.4126 70.9033 75.3395 68.9175 75.6253C68.4723 75.6947 68.0197 75.726 67.5604 75.726C65.0566 75.726 62.7045 74.7406 60.9366 72.9564L59.2787 71.2837L41.845 53.6963C40.0737 51.9121 39.0997 49.5358 39.0997 47.0139C39.0997 44.4879 40.0737 42.115 41.845 40.3273C43.6136 38.5437 45.9657 37.5611 48.4695 37.5611C50.9733 37.5611 53.3247 38.5437 55.0933 40.3273L72.4952 57.8841C74.3636 57.3125 76.3015 57.0267 78.2387 57.0267C80.7877 57.0267 83.336 57.5214 85.7326 58.5074C84.7728 56.2148 83.3637 54.0652 81.5128 52.1979L62.4212 32.9378C58.567 29.0495 53.5183 27.1087 48.4695 27.1087C43.42 27.1087 38.3713 29.0495 34.5171 32.9378C30.6662 36.8228 28.7391 41.9163 28.7391 47.0098C28.7391 52.104 30.6662 57.1975 34.5171 61.0858L53.608 80.3466C55.4939 82.2485 57.6659 83.6844 59.9802 84.6561C62.401 85.6701 64.9804 86.1784 67.5604 86.1784C69.4666 86.1784 71.3728 85.9001 73.2169 85.3461C76.2529 84.4329 79.1122 82.7678 81.5128 80.3466C83.937 77.9002 85.5984 74.9774 86.4962 71.8764L84.8935 70.2596Z" fill="#69EBFC"/>
<path d="M112.171 82.6563L92.9109 63.5477C90.9815 61.6334 88.7533 60.1954 86.3793 59.2295C87.4254 61.6786 87.9468 64.296 87.9468 66.9134C87.9468 68.7825 87.6793 70.6516 87.1478 72.4621L104.795 89.9704C108.49 93.6365 108.49 99.6022 104.795 103.268C103.005 105.044 100.627 106.024 98.0969 106.024C95.5626 106.024 93.1852 105.044 91.3956 103.268L73.7824 85.7944L72.1354 84.1597C70.3452 82.3835 69.3581 80.0247 69.3581 77.5111C69.3581 77.0591 69.3893 76.6105 69.4552 76.1727C69.7403 74.1689 70.6684 72.3173 72.1354 70.8618C73.5883 69.4204 75.4267 68.5063 77.422 68.2133C77.8184 65.406 76.9284 62.4545 74.756 60.2991L73.056 58.6125C70.0187 59.5232 67.1578 61.168 64.7593 63.5477C62.3329 65.9543 60.6649 68.827 59.7538 71.8754C59.2046 73.7102 58.9303 75.6103 58.9303 77.5111C58.9303 80.0975 59.4408 82.6839 60.4599 85.1114C61.4293 87.4257 62.8611 89.5912 64.7593 91.4738L84.0194 110.582C87.9054 114.442 93.0012 116.37 98.0969 116.37C103.189 116.37 108.285 114.442 112.171 110.582C116.057 106.727 118 101.675 118 96.619C118 91.564 116.057 86.5117 112.171 82.6563Z" fill="#0AAFE3"/>
<path d="M112.171 107.111C108.285 110.98 103.189 112.912 98.0969 112.912C93.0012 112.912 87.9054 110.98 84.0194 107.111L64.7593 87.9543C62.8611 86.067 61.4293 83.8961 60.4599 81.576C59.6669 79.6813 59.1856 77.69 59.0091 75.6771C58.9588 76.2551 58.9303 76.8338 58.9303 77.4138C58.9303 80.0067 59.4408 82.5996 60.4599 85.0332C61.4293 87.3533 62.8611 89.5242 64.7593 91.4115L84.0194 110.568C87.9054 114.437 93.0012 116.37 98.0969 116.37C103.189 116.37 108.285 114.437 112.171 110.568C116.057 106.703 118 101.638 118 96.5696C118 95.993 117.971 95.4163 117.921 94.841C117.53 99.3185 115.614 103.686 112.171 107.111Z" fill="#1A96BD"/>
<path d="M87.8088 66.2882C87.8088 68.1243 87.5494 69.9605 87.034 71.7391L85.4699 70.167C83.7339 68.4221 81.4285 67.4633 78.975 67.4633C78.5096 67.4633 78.0547 67.4977 77.6031 67.5652C77.9876 64.8073 77.1245 61.9078 75.018 59.7904L73.3696 58.1336C75.1931 57.5778 77.0844 57.2999 78.975 57.2999C81.4628 57.2999 83.9498 57.7809 86.2888 58.7397C87.3032 61.1456 87.8088 63.7169 87.8088 66.2882Z" fill="#69EBFC"/>
<path d="M34.5683 36.3724C38.4566 32.5048 43.5501 30.5743 48.6443 30.5743C53.7378 30.5743 58.8313 32.5048 62.7197 36.3724L81.9804 55.5301C83.8477 57.3874 85.2692 59.5257 86.2376 61.8061C87.0569 63.7277 87.5502 65.7536 87.7292 67.8012C87.7802 67.2224 87.8088 66.6424 87.8088 66.0623C87.8088 63.4319 87.2862 60.8016 86.2376 58.3405C85.2692 56.0601 83.8477 53.9218 81.9804 52.0645L62.7197 32.9068C58.8313 29.0392 53.7378 27.1087 48.6443 27.1087C43.5501 27.1087 38.4566 29.0392 34.5683 32.9068C30.6833 36.7711 28.7391 41.8375 28.7391 46.904C28.7391 47.4827 28.7677 48.0607 28.8181 48.6368C29.2114 44.1626 31.127 39.7954 34.5683 36.3724Z" fill="#A1F1FC"/>
</svg>
